<svg width="20" height="25" viewBox="0 0 20 25" fill="none" xmlns="http://www.w3.org/2000/svg">
<g clip-path="url(#clip0_2_923)">
<path d="M16.0369 12.7339C16.0369 12.8349 15.8853 15.8163 19.1699 17.3828C18.5635 19.2525 16.4412 23.3961 13.9651 23.3961C12.5502 23.3961 11.7417 22.4865 10.1247 22.4865C8.45715 22.4865 7.54758 23.3961 6.28428 23.3961C3.85875 23.4972 1.53428 18.9493 0.877369 17.0796C0.37205 15.6647 0.169922 14.3004 0.169922 12.9865C0.169922 8.48919 3.1513 6.31632 5.98109 6.26579C7.34545 6.26579 9.06354 7.22589 9.82152 7.22589C10.5289 7.22589 12.4997 6.06366 14.3188 6.21525C16.1885 6.36685 17.6034 7.0743 18.5635 8.43866C16.896 9.49983 16.0369 10.8642 16.0369 12.7339ZM13.2071 4.44664C12.1965 5.60887 10.9837 6.26579 9.66992 6.16472C9.56886 4.80036 10.0742 3.53706 10.9837 2.52642C11.7922 1.61685 13.2071 0.858875 14.4199 0.757812C14.4199 1.31366 14.5715 2.82962 13.2071 4.44664Z" fill="white"/>
</g>
<defs>
<clipPath id="clip0_2_923">
<rect width="19" height="24" fill="white" transform="translate(0.169922 0.219727)"/>
</clipPath>
</defs>
</svg>
