<svg width="200" height="57" viewBox="0 0 200 57" fill="none" xmlns="http://www.w3.org/2000/svg">
<g clip-path="url(#clip0_2_871)">
<g clip-path="url(#clip1_2_871)">
<g clip-path="url(#clip2_2_871)">
<path fill-rule="evenodd" clip-rule="evenodd" d="M24.4471 15.9092L24.4353 56.5513L28.7746 56.5392L28.7625 42.3527L36.4281 42.3406L36.416 56.5392H40.9578V1.40723L36.4039 4.42678L36.3983 38.0539L28.8102 38.0288L28.8162 8.42154L0 25.0903L0.0387793 47.939L4.59272 47.9514L4.59861 27.6183L24.4471 15.9092Z" fill="white"/>
<path fill-rule="evenodd" clip-rule="evenodd" d="M16.567 56.3494V25.4746L12.0856 28.1011L12.1802 52.1565L0.0687157 52.0614L0.0088501 56.3252L16.567 56.3494Z" fill="white"/>
<path d="M72.3921 33.4891V18.5566H76.0586V33.4891C76.0586 34.9056 75.7555 36.1122 75.1493 37.1086C74.5431 38.1051 73.717 38.8671 72.6708 39.3947C71.6246 39.9222 70.4367 40.186 69.107 40.186C67.7479 40.186 66.5404 39.9564 65.4845 39.4972C64.4383 39.0381 63.6171 38.3347 63.0206 37.3871C62.4242 36.4394 62.126 35.2378 62.126 33.7822H65.8218C65.8218 34.6223 65.9538 35.3013 66.2178 35.8191C66.4916 36.3271 66.8729 36.6983 67.3617 36.9328C67.8604 37.1575 68.4421 37.2698 69.107 37.2698C69.7425 37.2698 70.3047 37.1282 70.7936 36.8449C71.2922 36.5518 71.6833 36.1268 71.9668 35.57C72.2504 35.0033 72.3921 34.3097 72.3921 33.4891Z" fill="white"/>
<path d="M89.4926 36.156V24.0371H93.0417V39.8928H89.6979L89.4926 36.156ZM89.9912 32.8589L91.1791 32.8296C91.1791 33.8944 91.0618 34.8762 90.8272 35.775C90.5925 36.664 90.2307 37.4407 89.7419 38.105C89.253 38.7596 88.6273 39.2725 87.8646 39.6437C87.102 40.0052 86.1878 40.1859 85.1221 40.1859C84.3497 40.1859 83.6409 40.0735 82.9956 39.8488C82.3503 39.6241 81.793 39.2773 81.3237 38.8084C80.8641 38.3395 80.5073 37.7289 80.2531 36.9766C79.9988 36.2244 79.8717 35.3256 79.8717 34.2803V24.0371H83.4062V34.3096C83.4062 34.886 83.4747 35.3696 83.6115 35.7604C83.7484 36.1414 83.9342 36.4491 84.1688 36.6836C84.4035 36.918 84.6773 37.0841 84.9901 37.1818C85.303 37.2795 85.6354 37.3283 85.9874 37.3283C86.9945 37.3283 87.7864 37.133 88.3633 36.7422C88.9499 36.3416 89.3655 35.8043 89.6099 35.1302C89.8641 34.4562 89.9912 33.699 89.9912 32.8589Z" fill="white"/>
<path d="M105.566 35.5993C105.566 35.2476 105.478 34.9301 105.302 34.6468C105.126 34.3537 104.789 34.0899 104.29 33.8554C103.802 33.621 103.078 33.406 102.12 33.2107C101.279 33.025 100.507 32.8052 99.8028 32.5512C99.1086 32.2875 98.5122 31.97 98.0135 31.5987C97.5149 31.2275 97.1287 30.7879 96.8549 30.2799C96.5812 29.7718 96.4443 29.1857 96.4443 28.5214C96.4443 27.8766 96.5861 27.266 96.8696 26.6896C97.1531 26.1132 97.5589 25.6052 98.0869 25.1656C98.6148 24.726 99.2552 24.3792 100.008 24.1252C100.771 23.8711 101.621 23.7441 102.56 23.7441C103.89 23.7441 105.029 23.9688 105.977 24.4182C106.935 24.8579 107.668 25.4587 108.177 26.2207C108.685 26.9729 108.94 27.8229 108.94 28.7705H105.405C105.405 28.3504 105.297 27.9596 105.082 27.5982C104.877 27.2269 104.564 26.929 104.144 26.7043C103.723 26.4698 103.195 26.3526 102.56 26.3526C101.954 26.3526 101.45 26.4503 101.049 26.6456C100.658 26.8313 100.365 27.0755 100.169 27.3783C99.9837 27.6812 99.8908 28.0134 99.8908 28.3748C99.8908 28.6386 99.9397 28.8779 100.037 29.0929C100.145 29.298 100.321 29.4885 100.565 29.6644C100.81 29.8305 101.142 29.9868 101.563 30.1333C101.993 30.2799 102.531 30.4215 103.176 30.5583C104.388 30.8123 105.429 31.1396 106.3 31.5401C107.18 31.9309 107.854 32.4389 108.324 33.0641C108.793 33.6796 109.028 34.4611 109.028 35.4088C109.028 36.1122 108.876 36.7569 108.573 37.3431C108.28 37.9195 107.849 38.4226 107.282 38.8525C106.715 39.2725 106.036 39.5998 105.244 39.8343C104.462 40.0688 103.582 40.186 102.604 40.186C101.167 40.186 99.9494 39.932 98.9522 39.424C97.9549 38.9062 97.1971 38.2468 96.6789 37.4457C96.1705 36.6348 95.9163 35.7947 95.9163 34.9252H99.3335C99.3726 35.5797 99.5535 36.1024 99.8761 36.4932C100.208 36.8742 100.619 37.1526 101.108 37.3284C101.607 37.4945 102.12 37.5776 102.648 37.5776C103.283 37.5776 103.816 37.4945 104.246 37.3284C104.677 37.1526 105.004 36.9181 105.229 36.6251C105.454 36.3222 105.566 35.9803 105.566 35.5993Z" fill="white"/>
<path d="M119.396 24.0366V26.6157H110.45V24.0366H119.396ZM113.031 20.1533H116.566V35.5107C116.566 35.9992 116.634 36.3753 116.771 36.6391C116.918 36.8931 117.118 37.0641 117.372 37.152C117.627 37.2399 117.925 37.2839 118.267 37.2839C118.511 37.2839 118.746 37.2692 118.971 37.2399C119.196 37.2106 119.377 37.1813 119.514 37.152L119.528 39.8483C119.235 39.9363 118.893 40.0144 118.502 40.0828C118.12 40.1512 117.68 40.1854 117.182 40.1854C116.37 40.1854 115.652 40.0437 115.026 39.7604C114.4 39.4673 113.911 38.9935 113.559 38.339C113.207 37.6844 113.031 36.815 113.031 35.7306V20.1533Z" fill="white"/>
<path d="M136.585 27.4663V30.3824H125.248V27.4663H136.585ZM126.157 18.5566V39.8929H122.476V18.5566H126.157ZM139.415 18.5566V39.8929H135.749V18.5566H139.415Z" fill="white"/>
<path d="M142.774 32.1409V31.8039C142.774 30.6609 142.94 29.6009 143.272 28.6239C143.605 27.6372 144.084 26.7824 144.71 26.0595C145.345 25.3268 146.118 24.7602 147.027 24.3596C147.946 23.9493 148.982 23.7441 150.136 23.7441C151.299 23.7441 152.336 23.9493 153.245 24.3596C154.164 24.7602 154.942 25.3268 155.577 26.0595C156.213 26.7824 156.697 27.6372 157.029 28.6239C157.361 29.6009 157.528 30.6609 157.528 31.8039V32.1409C157.528 33.2839 157.361 34.3439 157.029 35.3208C156.697 36.2978 156.213 37.1526 155.577 37.8853C154.942 38.6082 154.169 39.1749 153.26 39.5852C152.351 39.9857 151.319 40.186 150.165 40.186C149.002 40.186 147.961 39.9857 147.041 39.5852C146.132 39.1749 145.36 38.6082 144.724 37.8853C144.089 37.1526 143.605 36.2978 143.272 35.3208C142.94 34.3439 142.774 33.2839 142.774 32.1409ZM146.308 31.8039V32.1409C146.308 32.8541 146.382 33.5282 146.528 34.1632C146.675 34.7982 146.905 35.355 147.217 35.8337C147.53 36.3124 147.931 36.6886 148.42 36.9621C148.909 37.2356 149.491 37.3724 150.165 37.3724C150.82 37.3724 151.387 37.2356 151.867 36.9621C152.355 36.6886 152.756 36.3124 153.069 35.8337C153.382 35.355 153.612 34.7982 153.758 34.1632C153.915 33.5282 153.993 32.8541 153.993 32.1409V31.8039C153.993 31.1005 153.915 30.4362 153.758 29.8109C153.612 29.1759 153.377 28.6142 153.055 28.1257C152.742 27.6372 152.341 27.2562 151.852 26.9827C151.373 26.6994 150.801 26.5577 150.136 26.5577C149.471 26.5577 148.894 26.6994 148.405 26.9827C147.926 27.2562 147.53 27.6372 147.217 28.1257C146.905 28.6142 146.675 29.1759 146.528 29.8109C146.382 30.4362 146.308 31.1005 146.308 31.8039Z" fill="white"/>
<path d="M164.025 27.2611V39.8929H160.49V24.0372H163.819L164.025 27.2611ZM163.453 31.3789L162.25 31.3643C162.25 30.2701 162.387 29.259 162.661 28.3309C162.934 27.4028 163.335 26.5968 163.863 25.9129C164.391 25.2193 165.046 24.6869 165.828 24.3157C166.62 23.9347 167.535 23.7441 168.571 23.7441C169.295 23.7441 169.954 23.8516 170.551 24.0665C171.157 24.2717 171.68 24.599 172.12 25.0484C172.57 25.4977 172.912 26.0741 173.147 26.7775C173.391 27.4809 173.513 28.3309 173.513 29.3273V39.8929H169.979V29.6351C169.979 28.8633 169.862 28.2576 169.627 27.818C169.402 27.3784 169.075 27.0657 168.644 26.8801C168.224 26.6847 167.72 26.587 167.134 26.587C166.469 26.587 165.902 26.714 165.433 26.968C164.973 27.222 164.597 27.5689 164.303 28.0085C164.01 28.4481 163.795 28.9561 163.658 29.5325C163.521 30.1089 163.453 30.7244 163.453 31.3789ZM173.293 30.441L171.636 30.8074C171.636 29.85 171.768 28.9463 172.032 28.0964C172.306 27.2367 172.702 26.4845 173.22 25.8397C173.748 25.1851 174.398 24.6722 175.171 24.301C175.943 23.9298 176.828 23.7441 177.825 23.7441C178.637 23.7441 179.36 23.8565 179.996 24.0812C180.641 24.2961 181.189 24.638 181.638 25.107C182.088 25.5759 182.43 26.1865 182.665 26.9387C182.9 27.6812 183.017 28.58 183.017 29.6351V39.8929H179.468V29.6204C179.468 28.8193 179.35 28.199 179.116 27.7594C178.891 27.3197 178.568 27.0169 178.148 26.8508C177.727 26.675 177.224 26.587 176.637 26.587C176.09 26.587 175.606 26.6896 175.185 26.8948C174.775 27.0902 174.428 27.3686 174.144 27.73C173.861 28.0817 173.645 28.4872 173.499 28.9463C173.362 29.4055 173.293 29.9037 173.293 30.441Z" fill="white"/>
<path d="M193.65 40.186C192.476 40.186 191.416 39.9955 190.467 39.6145C189.529 39.2237 188.727 38.6815 188.062 37.9879C187.407 37.2943 186.903 36.4785 186.551 35.5407C186.199 34.6028 186.023 33.5917 186.023 32.5073V31.9211C186.023 30.6804 186.204 29.5569 186.566 28.5507C186.928 27.5444 187.431 26.6847 188.077 25.9716C188.722 25.2486 189.485 24.6967 190.365 24.3157C191.244 23.9347 192.198 23.7441 193.224 23.7441C194.359 23.7441 195.351 23.9347 196.202 24.3157C197.052 24.6967 197.756 25.234 198.313 25.9276C198.88 26.6115 199.301 27.4272 199.575 28.3748C199.858 29.3225 200 30.3678 200 31.5108V33.0202H187.739V30.485H196.51V30.2066C196.49 29.5716 196.363 28.9756 196.128 28.4188C195.903 27.8619 195.556 27.4125 195.087 27.0706C194.618 26.7287 193.992 26.5577 193.21 26.5577C192.623 26.5577 192.1 26.6847 191.64 26.9387C191.191 27.183 190.814 27.5395 190.511 28.0085C190.208 28.4774 189.973 29.044 189.807 29.7083C189.651 30.3629 189.573 31.1005 189.573 31.9211V32.5073C189.573 33.2009 189.665 33.8457 189.851 34.4416C190.047 35.0278 190.33 35.5407 190.702 35.9803C191.073 36.4199 191.523 36.7667 192.051 37.0207C192.579 37.2649 193.18 37.3871 193.855 37.3871C194.706 37.3871 195.463 37.2161 196.128 36.8742C196.793 36.5322 197.37 36.0487 197.859 35.4234L199.721 37.2259C199.379 37.7241 198.934 38.2028 198.387 38.662C197.839 39.1114 197.169 39.4777 196.378 39.761C195.595 40.0443 194.686 40.186 193.65 40.186Z" fill="white"/>
</g>
</g>
</g>
<defs>
<clipPath id="clip0_2_871">
<rect width="200" height="56" fill="white" transform="translate(0 0.549805)"/>
</clipPath>
<clipPath id="clip1_2_871">
<rect width="200" height="56" fill="white" transform="translate(0 0.549805)"/>
</clipPath>
<clipPath id="clip2_2_871">
<rect width="200" height="56" fill="white" transform="translate(0 0.549805)"/>
</clipPath>
</defs>
</svg>
