<svg width="21" height="21" viewBox="0 0 21 21" fill="#ffffff" xmlns="http://www.w3.org/2000/svg">
<path d="M16.2566 19.77H13.8566C13.7232 19.77 13.5899 19.8366 13.4566 19.97C13.3232 20.1033 13.2566 20.2477 13.2566 20.4033C13.2566 20.5589 13.3232 20.6922 13.4566 20.8033C13.5899 20.9144 13.7232 20.97 13.8566 20.97H16.2566C16.4343 20.97 16.5788 20.9144 16.6899 20.8033C16.801 20.6922 16.8566 20.5589 16.8566 20.4033C16.8566 20.2477 16.801 20.1033 16.6899 19.97C16.5788 19.8366 16.4343 19.77 16.2566 19.77ZM11.5232 19.77H9.18989C9.01212 19.77 8.86767 19.8366 8.75656 19.97C8.64545 20.1033 8.58989 20.2477 8.58989 20.4033C8.58989 20.5589 8.64545 20.6922 8.75656 20.8033C8.86767 20.9144 9.01212 20.97 9.18989 20.97H11.5232C11.701 20.97 11.8454 20.9144 11.9566 20.8033C12.0677 20.6922 12.1232 20.5589 12.1232 20.4033C12.1232 20.2477 12.0677 20.1033 11.9566 19.97C11.8454 19.8366 11.701 19.77 11.5232 19.77ZM19.7899 9.16997C19.6566 9.16997 19.5232 9.22553 19.3899 9.33664C19.2566 9.44775 19.1899 9.59219 19.1899 9.76997V12.1033C19.1899 12.2811 19.2566 12.4255 19.3899 12.5366C19.5232 12.6477 19.6677 12.7033 19.8232 12.7033C19.9788 12.7033 20.1121 12.6477 20.2232 12.5366C20.3343 12.4255 20.3899 12.2811 20.3899 12.1033V9.76997C20.3899 9.59219 20.3343 9.44775 20.2232 9.33664C20.1121 9.22553 19.9677 9.16997 19.7899 9.16997ZM19.7899 13.8366C19.6566 13.8366 19.5232 13.9033 19.3899 14.0366C19.2566 14.17 19.1899 14.3033 19.1899 14.4366V16.77C19.1899 16.9477 19.2566 17.0922 19.3899 17.2033C19.5232 17.3144 19.6677 17.37 19.8232 17.37C19.9788 17.37 20.1121 17.3144 20.2232 17.2033C20.3343 17.0922 20.3899 16.9477 20.3899 16.77V14.4366C20.3899 14.3033 20.3343 14.17 20.2232 14.0366C20.1121 13.9033 19.9677 13.8366 19.7899 13.8366ZM6.85656 19.77H6.25656V19.2366C6.25656 19.0589 6.201 18.9144 6.08989 18.8033C5.97878 18.6922 5.83434 18.6366 5.65656 18.6366C5.47878 18.6366 5.33434 18.6922 5.22323 18.8033C5.11211 18.9144 5.05656 19.0589 5.05656 19.2366V20.37C5.05656 20.5477 5.11211 20.6922 5.22323 20.8033C5.33434 20.9144 5.47878 20.97 5.65656 20.97H6.85656C6.98989 20.97 7.11212 20.9144 7.22323 20.8033C7.33434 20.6922 7.38989 20.5589 7.38989 20.4033C7.38989 20.2477 7.33434 20.1033 7.22323 19.97C7.11212 19.8366 6.98989 19.77 6.85656 19.77ZM19.7899 5.63664H18.6566C18.4788 5.63664 18.3343 5.69219 18.2232 5.8033C18.1121 5.91441 18.0566 6.05886 18.0566 6.23664C18.0566 6.41441 18.1121 6.55886 18.2232 6.66997C18.3343 6.78108 18.4788 6.83664 18.6566 6.83664H19.1899V7.43664C19.1899 7.56997 19.2566 7.69219 19.3899 7.8033C19.5232 7.91441 19.6677 7.96997 19.8232 7.96997C19.9788 7.96997 20.1121 7.91441 20.2232 7.8033C20.3343 7.69219 20.3899 7.56997 20.3899 7.43664V6.23664C20.3899 6.05886 20.3343 5.91441 20.2232 5.8033C20.1121 5.69219 19.9677 5.63664 19.7899 5.63664ZM19.7899 18.6366C19.6566 18.6366 19.5232 18.6922 19.3899 18.8033C19.2566 18.9144 19.1899 19.0589 19.1899 19.2366V19.77H18.6566C18.4788 19.77 18.3343 19.8366 18.2232 19.97C18.1121 20.1033 18.0566 20.2477 18.0566 20.4033C18.0566 20.5589 18.1121 20.6922 18.2232 20.8033C18.3343 20.9144 18.4788 20.97 18.6566 20.97H19.7899C19.9677 20.97 20.1121 20.9144 20.2232 20.8033C20.3343 20.6922 20.3899 20.5477 20.3899 20.37V19.2366C20.3899 19.0589 20.3343 18.9144 20.2232 18.8033C20.1121 18.6922 19.9677 18.6366 19.7899 18.6366ZM16.2566 5.63664H15.6566V1.56997C15.6566 1.39219 15.5899 1.24775 15.4566 1.13664C15.3232 1.02553 15.1899 0.969969 15.0566 0.969969H0.989893C0.812115 0.969969 0.66767 1.02553 0.556559 1.13664C0.445448 1.24775 0.389893 1.39219 0.389893 1.56997V15.6366C0.389893 15.77 0.445448 15.9033 0.556559 16.0366C0.66767 16.17 0.812115 16.2366 0.989893 16.2366H5.05656V16.77C5.05656 16.9477 5.11211 17.0922 5.22323 17.2033C5.33434 17.3144 5.47878 17.37 5.65656 17.37C5.83434 17.37 5.97878 17.3144 6.08989 17.2033C6.201 17.0922 6.25656 16.9477 6.25656 16.77V6.83664H16.2566C16.4343 6.83664 16.5788 6.78108 16.6899 6.66997C16.801 6.55886 16.8566 6.41441 16.8566 6.23664C16.8566 6.05886 16.801 5.91441 16.6899 5.8033C16.5788 5.69219 16.4343 5.63664 16.2566 5.63664ZM14.4566 5.63664H5.65656C5.47878 5.63664 5.33434 5.69219 5.22323 5.8033C5.11211 5.91441 5.05656 6.05886 5.05656 6.23664V15.0366H1.58989V2.16997H14.4566V5.63664Z" fill="white"/>
</svg>
