<svg width="21" height="21" viewBox="0 0 21 21" fill="#ffffff" xmlns="http://www.w3.org/2000/svg">
<g clip-path="url(#clip0_2_575)">
<path d="M20.4399 11.1033C20.4399 10.6144 20.2733 10.2033 19.9399 9.86997C19.6066 9.53663 19.1955 9.36997 18.7066 9.36997H3.57327V3.96997C3.57327 3.52552 3.72883 3.14775 4.03994 2.83663C4.26216 2.61441 4.51772 2.48108 4.80661 2.43663C5.0955 2.39219 5.3955 2.41441 5.70661 2.5033C5.30661 3.12552 5.15105 3.81441 5.23994 4.56997C5.32883 5.32552 5.63994 5.96997 6.17327 6.5033L6.30661 6.7033C6.43994 6.79219 6.58439 6.83663 6.73994 6.83663C6.8955 6.83663 7.01772 6.79219 7.10661 6.7033L10.9066 2.9033C11.0399 2.76997 11.1066 2.62552 11.1066 2.46997C11.1066 2.31441 11.0399 2.16997 10.9066 2.03663L10.7733 1.9033C10.1955 1.32552 9.4955 1.01441 8.67327 0.969967C7.85105 0.925524 7.12883 1.14775 6.50661 1.63663C5.97328 1.32552 5.3955 1.2033 4.77327 1.26997C4.15105 1.33663 3.61772 1.59219 3.17327 2.03663C2.63994 2.56997 2.37327 3.21441 2.37327 3.96997V9.36997H2.17327C1.68439 9.36997 1.27327 9.53663 0.939941 9.86997C0.606608 10.2033 0.439941 10.6144 0.439941 11.1033C0.439941 11.5033 0.551053 11.8477 0.773275 12.1366C0.995497 12.4255 1.26216 12.6366 1.57327 12.77V14.0366C1.57327 15.1033 1.86216 16.0811 2.43994 16.97C3.01772 17.8589 3.75105 18.5477 4.63994 19.0366L4.10661 20.1033C4.01772 20.2811 4.00661 20.4366 4.07327 20.57C4.13994 20.7033 4.23994 20.8144 4.37328 20.9033C4.50661 20.9922 4.65105 21.0033 4.80661 20.9366C4.96216 20.87 5.08439 20.77 5.17327 20.6366L5.77327 19.4366C6.21772 19.5255 6.68439 19.57 7.17327 19.57H13.7066C14.1955 19.57 14.6622 19.5255 15.1066 19.4366L15.7066 20.6366C15.7955 20.77 15.9177 20.87 16.0733 20.9366C16.2288 21.0033 16.3733 20.9922 16.5066 20.9033C16.6399 20.8144 16.7399 20.7033 16.8066 20.57C16.8733 20.4366 16.8622 20.2811 16.7733 20.1033L16.2399 19.0366C17.1288 18.5477 17.8622 17.8589 18.4399 16.97C19.0177 16.0811 19.3066 15.1033 19.3066 14.0366V12.77C19.6177 12.6366 19.8844 12.4255 20.1066 12.1366C20.3288 11.8477 20.4399 11.5033 20.4399 11.1033ZM9.63994 2.5033L6.77327 5.43663C6.46216 4.99219 6.32883 4.52552 6.37328 4.03663C6.41772 3.54774 6.61772 3.12552 6.97328 2.76997C7.32883 2.41441 7.76216 2.21441 8.27328 2.16997C8.78439 2.12552 9.23994 2.23664 9.63994 2.5033ZM2.17327 10.57H18.7066C18.8399 10.57 18.9622 10.6255 19.0733 10.7366C19.1844 10.8477 19.2399 10.9811 19.2399 11.1366C19.2399 11.2922 19.1844 11.4255 19.0733 11.5366C18.9622 11.6477 18.8399 11.7033 18.7066 11.7033H2.17327C2.03994 11.7033 1.91772 11.6477 1.80661 11.5366C1.6955 11.4255 1.63994 11.2922 1.63994 11.1366C1.63994 10.9811 1.6955 10.8477 1.80661 10.7366C1.91772 10.6255 2.03994 10.57 2.17327 10.57ZM18.1066 14.0366C18.1066 14.8366 17.9066 15.57 17.5066 16.2366C17.1066 16.9033 16.5733 17.4366 15.9066 17.8366C15.2399 18.2366 14.5066 18.4366 13.7066 18.4366H7.17327C6.37328 18.4366 5.63994 18.2366 4.97328 17.8366C4.30661 17.4366 3.77327 16.9033 3.37327 16.2366C2.97327 15.57 2.77327 14.8366 2.77327 14.0366V12.9033H18.1066V14.0366ZM8.90661 6.9033C8.90661 7.08108 8.96216 7.22552 9.07328 7.33663C9.18439 7.44775 9.31772 7.5033 9.47328 7.5033C9.62883 7.5033 9.76216 7.44775 9.87327 7.33663C9.98439 7.22552 10.0399 7.08108 10.0399 6.9033C10.0399 6.72552 9.98439 6.58108 9.87327 6.46997C9.76216 6.35886 9.62883 6.3033 9.47328 6.3033C9.31772 6.3033 9.18439 6.35886 9.07328 6.46997C8.96216 6.58108 8.90661 6.72552 8.90661 6.9033ZM10.5733 5.23663C10.5733 5.41441 10.6288 5.55886 10.7399 5.66997C10.8511 5.78108 10.9844 5.83663 11.1399 5.83663C11.2955 5.83663 11.4288 5.78108 11.5399 5.66997C11.6511 5.55886 11.7066 5.41441 11.7066 5.23663C11.7066 5.05886 11.6511 4.91441 11.5399 4.8033C11.4288 4.69219 11.2955 4.63663 11.1399 4.63663C10.9844 4.63663 10.8511 4.69219 10.7399 4.8033C10.6288 4.91441 10.5733 5.05886 10.5733 5.23663ZM10.9733 7.3033C10.9733 7.43664 11.0288 7.56997 11.1399 7.7033C11.2511 7.83663 11.3844 7.9033 11.5399 7.9033C11.6955 7.9033 11.8288 7.83663 11.9399 7.7033C12.0511 7.56997 12.1066 7.42552 12.1066 7.26997C12.1066 7.11441 12.0511 6.98108 11.9399 6.86997C11.8288 6.75886 11.6955 6.7033 11.5399 6.7033C11.3844 6.7033 11.2511 6.75886 11.1399 6.86997C11.0288 6.98108 10.9733 7.12552 10.9733 7.3033Z" fill="white"/>
</g>
<defs>
<clipPath id="clip0_2_575">
<rect width="20" height="20" fill="white" transform="matrix(1 0 0 -1 0.439941 20.97)"/>
</clipPath>
</defs>
</svg>
