<svg width="21" height="14" viewBox="0 0 21 14" fill="none" xmlns="http://www.w3.org/2000/svg">
<path d="M18.0133 3.23667H9.21331C8.76887 3.23667 8.34665 3.37 7.94665 3.63667C7.85776 2.97 7.57998 2.42556 7.11331 2.00334C6.64665 1.58111 6.1022 1.37 5.47998 1.37C4.99109 1.37 4.54665 1.48111 4.14665 1.70334V0.703336C4.14665 0.525558 4.09109 0.381114 3.97998 0.270002C3.86887 0.158892 3.72443 0.103336 3.54665 0.103336H1.07998C0.902203 0.103336 0.757758 0.158892 0.646647 0.270002C0.535536 0.381114 0.47998 0.525558 0.47998 0.703336V13.2367C0.47998 13.4144 0.535536 13.5589 0.646647 13.67C0.757758 13.7811 0.902203 13.8367 1.07998 13.8367H3.54665C3.72443 13.8367 3.86887 13.7811 3.97998 13.67C4.09109 13.5589 4.14665 13.4144 4.14665 13.2367V11.3033H16.8133V13.2367C16.8133 13.4144 16.8689 13.5589 16.98 13.67C17.0911 13.7811 17.2355 13.8367 17.4133 13.8367H19.88C20.0578 13.8367 20.2022 13.7811 20.3133 13.67C20.4244 13.5589 20.48 13.4144 20.48 13.2367V5.70334C20.48 5.03667 20.2355 4.45889 19.7466 3.97C19.2578 3.48111 18.68 3.23667 18.0133 3.23667ZM5.47998 2.50334C5.83554 2.50334 6.13554 2.63667 6.37998 2.90334C6.62443 3.17 6.74665 3.48111 6.74665 3.83667C6.74665 4.19223 6.62443 4.49222 6.37998 4.73667C6.13554 4.98111 5.83554 5.10334 5.47998 5.10334C5.12442 5.10334 4.81331 4.98111 4.54665 4.73667C4.27998 4.49222 4.14665 4.19223 4.14665 3.83667C4.14665 3.48111 4.27998 3.17 4.54665 2.90334C4.81331 2.63667 5.12442 2.50334 5.47998 2.50334ZM4.14665 5.90334C4.54665 6.17 4.97998 6.30334 5.44665 6.30334C5.91331 6.30334 6.34665 6.17 6.74665 5.90334V7.63667H4.14665V5.90334ZM19.28 12.6367H17.9466V10.7033C17.9466 10.57 17.8911 10.4478 17.78 10.3367C17.6689 10.2256 17.5466 10.17 17.4133 10.17H3.54665C3.41331 10.17 3.29109 10.2256 3.17998 10.3367C3.06887 10.4478 3.01331 10.57 3.01331 10.7033V12.6367H1.67998V1.30334H3.01331V8.23667C3.01331 8.37 3.06887 8.50334 3.17998 8.63667C3.29109 8.77 3.41331 8.83667 3.54665 8.83667H19.28V12.6367ZM19.28 7.63667H7.94665V5.70334C7.94665 5.34778 8.06887 5.04778 8.31331 4.80334C8.55776 4.55889 8.85776 4.43667 9.21331 4.43667H18.0133C18.3689 4.43667 18.6689 4.55889 18.9133 4.80334C19.1578 5.04778 19.28 5.34778 19.28 5.70334V7.63667Z" fill="#1A1A1A"/>
</svg>
