<svg width="19" height="21" viewBox="0 0 19 21" fill="none" xmlns="http://www.w3.org/2000/svg">
<path d="M3.73509 20.6004C4.2515 20.5996 4.75851 20.4622 5.20469 20.2022L17.2299 13.2458C17.6767 12.9878 18.0477 12.6168 18.3057 12.17C18.5636 11.7232 18.6995 11.2163 18.6995 10.7004C18.6995 10.1845 18.5636 9.67767 18.3057 9.23086C18.0477 8.78405 17.6767 8.41301 17.2299 8.15504L5.20469 1.20744C4.75784 0.952266 4.25187 0.818786 3.73729 0.820326C3.22272 0.821856 2.71755 0.958366 2.27223 1.21621C1.82692 1.47405 1.45703 1.8442 1.19951 2.2897C0.942001 2.7352 0.805861 3.24047 0.804691 3.75504V17.6458C0.803511 18.4256 1.1111 19.1741 1.66022 19.7278C2.20934 20.2814 2.95532 20.5952 3.73509 20.6004ZM2.33369 3.75504C2.33186 3.50871 2.39572 3.26635 2.51868 3.0529C2.64165 2.83945 2.81928 2.66263 3.03329 2.54064C3.24604 2.41678 3.48781 2.35152 3.73399 2.35152C3.98017 2.35152 4.22195 2.41678 4.43469 2.54064L16.4665 9.48824C16.6784 9.61128 16.8542 9.78784 16.9765 10.0001C17.0987 10.2125 17.1631 10.4532 17.1631 10.6982C17.1631 10.9432 17.0987 11.1839 16.9765 11.3963C16.8542 11.6086 16.6784 11.7852 16.4665 11.9082L4.43469 18.8602C4.22162 18.983 3.98001 19.0475 3.73411 19.0473C3.48821 19.0471 3.24668 18.9823 3.03379 18.8592C2.8209 18.7362 2.64413 18.5593 2.52124 18.3463C2.39835 18.1333 2.33367 17.8917 2.33369 17.6458V3.75504Z" fill="white"/>
</svg>
